<?xml version="1.0" encoding="utf-8"?><svg xmlns="http://www.w3.org/2000/svg" xmlns:xlink="http://www.w3.org/1999/xlink"><symbol viewBox="0 0 24 24" id="map" xmlns="http://www.w3.org/2000/svg"><path d="M12 2a8 8 0 0 0-8 8c0 3.098 2.016 6.104 4.226 8.437A29.4 29.4 0 0 0 12 21.773a29.4 29.4 0 0 0 3.774-3.335C17.984 16.103 20 13.097 20 10a8 8 0 0 0-8-8m0 21-.555.832-.003-.002-.007-.005-.023-.015a29 29 0 0 1-1.441-1.074 31.4 31.4 0 0 1-3.197-2.923C4.484 17.396 2 13.902 2 10a10 10 0 0 1 20 0c0 3.902-2.484 7.396-4.774 9.813a31.4 31.4 0 0 1-4.254 3.726 19 19 0 0 1-.384.27l-.023.016-.007.005-.002.001s-.001.001-.556-.831m0 0 .555.832a1 1 0 0 1-1.11 0z" clip-rule="evenodd"/><path d="M12 8a2 2 0 1 0 0 4 2 2 0 0 0 0-4m-4 2a4 4 0 1 1 8 0 4 4 0 0 1-8 0" clip-rule="evenodd"/></symbol></svg>